<?xml version="1.0" encoding="UTF-8"?>
<svg width="39px" height="48px" viewBox="0 0 39 48" version="1.1" xmlns="http://www.w3.org/2000/svg" xmlns:xlink="http://www.w3.org/1999/xlink">
    <!-- Generator: Sketch 52.5 (67469) - http://www.bohemiancoding.com/sketch -->
    <title>TVS</title>
    <desc>Created with Sketch.</desc>
    <g id="Mobile---Sprint---Claims-Picker" stroke="none" stroke-width="1" fill="none" fill-rule="evenodd">
        <g id="Dashboard-Claim-picker" transform="translate(-16.000000, -8.000000)" fill="#1A3885">
            <g id="Group-5" transform="translate(16.000000, 8.000000)">
                <path d="M19.4181819,0.0107294215 C30.0912865,0.0107294215 38.7969395,10.7668497 38.7969395,23.9536332 C38.7969395,37.1409156 30.0912865,47.8973104 19.4181819,47.8973104 C8.74467816,47.8973104 0.0392497211,37.1409156 0.0392497211,23.9536332 C0.0392497211,10.7668497 8.74467816,0.0107294215 19.4181819,0.0107294215 Z M19.4181819,2.51804552 C9.86208503,2.51804552 2.06828314,12.1484998 2.06828314,23.9536332 C2.06828314,35.7606629 9.86208503,45.3899195 19.4181819,45.3899195 C28.9733806,45.3899195 36.7676066,35.7606629 36.7676066,23.9536332 C36.7676066,12.1484998 28.9733806,2.51804552 19.4181819,2.51804552 Z M6.72051041,13.3007648 L13.4695411,13.3007648 L13.4695411,15.8775477 L11.6204376,15.8775477 L11.6204376,36.7788351 L8.56961392,36.7788351 L8.56961392,15.8775477 L6.72051041,15.8775477 L6.72051041,13.3007648 Z M13.9275876,13.3014884 L16.8523032,13.3521163 L18.73876,31.9624477 L20.580852,13.3007648 L23.5177941,13.3984525 L20.0988265,36.7652611 L19.9261078,36.7652611 L17.4482102,36.7798332 L13.9275876,13.3014884 Z M28.1807757,13.3007648 C29.7169794,13.3007648 30.9765386,14.5867234 30.9765386,16.1629503 L30.9765386,19.8914991 L28.6588338,19.9548027 L28.6588338,16.1398945 C28.6588338,15.6867886 28.2965038,15.3157502 27.8552002,15.3157502 L27.466321,15.3157502 C27.0244685,15.3157502 26.6621883,15.6867886 26.6621883,16.1398945 L26.6621883,19.6491889 C26.6621883,20.1138227 26.7542118,20.4083329 27.0143629,20.7962888 C28.2306301,22.6120063 29.4474214,24.428173 30.6634142,26.2438906 C30.8888318,26.5774508 30.9765386,26.8353312 30.9765386,27.251009 L30.9765386,33.9174481 C30.9765386,35.4941491 29.7169794,36.7795338 28.1807757,36.7795338 L26.8266479,36.7795338 C25.2894462,36.7795338 24.0362497,35.4941491 24.0362497,33.9174481 L24.0362497,28.015343 L26.4876231,27.9487707 L26.4876231,33.6821743 C26.4876231,34.1357793 26.8499033,34.5065432 27.2912817,34.5065432 L27.6801359,34.5065432 C28.1219885,34.5065432 28.4842936,34.1352803 28.4842936,33.6821743 L28.4842936,27.7878543 C28.4842936,27.328186 28.3539187,27.0623209 28.1017024,26.6854687 C26.8621548,24.8250369 25.6223826,22.962559 24.382835,21.1033249 C24.168521,20.7819413 24.0591059,20.531846 24.0591059,20.1295925 L24.0591059,16.1629503 C24.0591059,14.5862244 25.2894462,13.3007648 26.8266479,13.3007648 L28.1807757,13.3007648 Z" id="TVS"></path>
            </g>
        </g>
    </g>
</svg>